Coordinates
version=1
nRows=12
nColumns=24
inDegrees=yes

Units are S.I. units (second, meters, Newtons, ...)
Angles are in degrees.

endheader
time	pelvis_tilt	pelvis_list	pelvis_rotation	pelvis_tx	pelvis_ty	pelvis_tz	hip_flexion_r	hip_adduction_r	hip_rotation_r	knee_angle_r	ankle_angle_r	subtalar_angle_r	mtp_angle_r	hip_flexion_l	hip_adduction_l	hip_rotation_l	knee_angle_l	ankle_angle_l	subtalar_angle_l	mtp_angle_l	lumbar_extension	lumbar_bending	lumbar_rotation
      3.99500000	    -10.25943579	      1.08746164	      0.94360043	     -1.89476597	     -0.02232026	     -0.74288100	     32.94094995	     -1.79656602	    -15.39685812	    -11.20815048	     -3.49160536	     -2.60474596	     13.84391796	     -3.87368619	      4.05987933	    -14.37475336	    -13.33949910	     10.83524760	      6.32661926	      8.62101536	      7.26887255	      1.15595017	     -8.82095332
      4.00000000	    -10.28374677	      1.02547714	      1.02613597	     -1.88858240	     -0.02293027	     -0.74243644	     32.97008801	     -1.67974612	    -14.68262202	    -11.86342984	     -3.78064303	     -3.35213829	     13.02219322	     -3.95420393	      3.83286990	    -14.29454538	    -13.92111765	     10.58704992	      6.54859463	      8.61854404	      7.44605053	      1.26711199	     -8.95716344
      4.00500000	    -10.31670928	      0.94048017	      1.07536459	     -1.88231900	     -0.02350569	     -0.74189513	     33.00122051	     -1.52463243	    -14.01898070	    -12.50257723	     -4.15395031	     -4.08711790	     12.13820294	     -4.01376389	      3.56495787	    -14.32277907	    -14.52951246	     10.31438409	      6.85656169	      8.62276992	      7.64273185	      1.40311477	     -9.05465750
      4.01000000	    -10.35860734	      0.80304870	      1.11984752	     -1.87596764	     -0.02404635	     -0.74134609	     33.02980913	     -1.32859543	    -13.45949152	    -13.11429636	     -4.60861721	     -4.83570795	     11.36057852	     -4.05327568	      3.23980453	    -14.33655204	    -15.15803324	     10.01243789	      7.09426631	      8.62845366	      7.86492825	      1.60012871	     -9.18456089
      4.01500000	    -10.38760295	      0.65363798	      1.27978259	     -1.86967271	     -0.02445757	     -0.74090662	     33.02910336	     -1.21379455	    -13.17233484	    -13.69025767	     -5.13621173	     -5.49907567	     10.91631155	     -4.06325200	      2.88909988	    -14.17439618	    -15.84256603	      9.65208383	      7.34301896	      8.62619564	      8.06194081	      1.78208517	     -9.41282452
      4.02000000	    -10.42005416	      0.53414301	      1.18702903	     -1.86335413	     -0.02487839	     -0.74000602	     33.05998471	     -0.95097911	    -12.48161286	    -14.27425630	     -5.69315117	     -6.44213225	      9.66095088	     -4.06773739	      2.54393532	    -14.47127570	    -16.55032523	      9.26138342	      7.75039508	      8.63564492	      8.25658699	      1.95940715	     -9.35432845
      4.02500000	    -10.46074167	      0.30549515	      1.19709208	     -1.85697854	     -0.02519208	     -0.73929302	     33.07849985	     -0.67230111	    -12.11495157	    -14.86294693	     -6.17859239	     -7.23294895	      8.09404716	     -4.02721190	      2.08668207	    -14.52696192	    -17.30915023	      8.84898968	      8.00378316	      8.69615566	      8.47044913	      2.24696339	     -9.40157754
      4.03000000	    -10.49194686	      0.11753978	      1.26927031	     -1.85063118	     -0.02538201	     -0.73864569	     33.07145409	     -0.48715691	    -11.84480199	    -15.41180737	     -6.69284348	     -8.10626651	      7.19516954	     -3.95516269	      1.66603578	    -14.54704838	    -18.11056338	      8.30526549	      8.21031915	      8.67990392	      8.67078869	      2.47496217	     -9.57839720
      4.03500000	    -10.53089839	     -0.11819361	      1.23661142	     -1.84422464	     -0.02553403	     -0.73783365	     33.08147792	     -0.19200518	    -11.53994702	    -16.00041802	     -7.08658241	     -8.96703576	      5.52910000	     -3.85814084	      1.18123833	    -14.67939261	    -18.95711286	      7.77109321	      8.47092171	      8.71001793	      8.88061043	      2.77150158	     -9.56837890
      4.04000000	    -10.55332957	     -0.32698871	      1.38444786	     -1.83780361	     -0.02551814	     -0.73731801	     33.03372125	     -0.06201708	    -11.56339254	    -16.52963925	     -7.48187646	     -9.81008033	      5.03896222	     -3.72404231	      0.74016468	    -14.51358504	    -19.84429466	      7.06727269	      8.52336567	      8.63774589	      9.08653757	      3.01110456	     -9.79578549
      4.04500000	    -10.57673829	     -0.54098129	      1.30093557	     -1.83139012	     -0.02551578	     -0.73635105	     33.00558557	      0.27125567	    -11.07002083	    -17.15871973	     -7.47570930	    -10.59787739	      2.18752647	     -3.56142779	      0.24139149	    -14.81497318	    -20.81124322	      6.36865855	      8.79557140	      8.76281747	      9.27569226	      3.28338115	     -9.78051032
      4.05000000	    -10.58524757	     -0.69327817	      1.36477529	     -1.82509473	     -0.02539389	     -0.73571878	     32.93572059	      0.41616226	    -10.89633224	    -17.68169601	     -7.72454078	    -11.50552685	      1.70290726	     -3.34629517	     -0.15191820	    -14.74389937	    -21.83202824	      5.52704871	      8.75709019	      8.69597956	      9.43134410	      3.48081356	     -9.89573625
